PathFileType	4	(X/Y/Z)	./resultDataOpenSim/trcMotMarkerGrf/sub06/qtm-04-05.trc
DataRate	CameraRate	NumFrames	NumMarkers	Units	OrigDataRate	OrigDataStartFrame	OrigNumFrames
250.000000	250.000000	11	24	m	250.000000	398	530
Frame#	Time	L.Toe.Tip			R.Toe.Tip			L.Ankle.Lat			R.Ankle.Lat			L.Ankle.Med			R.Ankle.Med			L.Heel			R.Heel			L.Knee.Lat			R.Knee.Lat			L.Knee.Med			R.Knee.Med			L.Thigh.Upper			R.Thigh.Upper			L.ASIS			R.ASIS			V.Sacral			L.Acromium			R.Acromium			C7			L.Elbow			R.Elbow			L.Wrist.Lat			R.Wrist.Lat
		X1	Y1	Z1	X2	Y2	Z2	X3	Y3	Z3	X4	Y4	Z4	X5	Y5	Z5	X6	Y6	Z6	X7	Y7	Z7	X8	Y8	Z8	X9	Y9	Z9	X10	Y10	Z10	X11	Y11	Z11	X12	Y12	Z12	X13	Y13	Z13	X14	Y14	Z14	X15	Y15	Z15	X16	Y16	Z16	X17	Y17	Z17	X18	Y18	Z18	X19	Y19	Z19	X20	Y20	Z20	X21	Y21	Z21	X22	Y22	Z22	X23	Y23	Z23	X24	Y24	Z24

398	1.588	1.4913795	0.10829453	-0.10080735	0.89820867	0.035129233	0.095956726	1.3631326	0.092679845	-0.10743349	0.76672336	0.075169747	0.11336095	1.371169	0.11006271	-0.024040512	0.79452385	0.093035455	0.027303631	1.3132323	0.03785232	-0.054315868	0.71188611	0.061831031	0.051369123	1.2723082	0.45219442	-0.10479283	0.94056439	0.42619362	0.14899967	1.2682082	0.43894027	0.019074518	0.91601619	0.42816268	0.018154671	1.0920008	0.80362854	-0.13407557	1.0327893	0.77857319	0.21042107	1.1527785	0.84747457	-0.077805402	1.139019	0.83073747	0.1692719	0.96362383	0.91051949	0.043559903	1.0544366	1.3162527	-0.1374337	1.0959622	1.3169455	0.22342375	0.99338135	1.349045	0.051858522	0.93611243	1.0352639	-0.17218091	1.1546035	0.99747395	0.30458565	0.95665822	0.80779764	-0.25955998	1.3825434	1.0231038	0.19977269
399	1.592	1.5045853	0.11163264	-0.10065376	0.89825275	0.035124533	0.096018581	1.3764037	0.093447055	-0.10688311	0.76724452	0.076021583	0.11352529	1.384066	0.11108571	-0.02353894	0.7950413	0.093715502	0.027499415	1.327607	0.037880601	-0.05412142	0.71211344	0.063234376	0.051615973	1.2781754	0.45021836	-0.10448689	0.94412332	0.42566493	0.14896657	1.2738447	0.43675278	0.019973984	0.91979732	0.42774398	0.018060592	1.0985439	0.80176784	-0.13421151	1.0382621	0.77738151	0.20996376	1.1594056	0.84564047	-0.077894395	1.1447894	0.82906781	0.16926271	0.96993363	0.90912414	0.042931738	1.0602385	1.3147565	-0.13789974	1.1018937	1.3153732	0.22305712	0.99924443	1.3475631	0.051447838	0.94114278	1.034145	-0.17204238	1.1614797	0.99603109	0.30426597	0.96050947	0.80667931	-0.25979686	1.3888352	1.0219835	0.19848551
400	1.596	1.517192	0.11476777	-0.10043229	0.89827534	0.035105635	0.09610462	1.3891682	0.094260882	-0.10636741	0.76779463	0.076927096	0.11372326	1.3965151	0.11209928	-0.023051348	0.79553522	0.094456048	0.027764884	1.3413619	0.038026459	-0.054025852	0.71231965	0.064744631	0.051951769	1.2842351	0.44841216	-0.10404314	0.94779554	0.42513372	0.14894079	1.2796383	0.43479466	0.020963836	0.92370274	0.42730089	0.017972326	1.1051228	0.79989174	-0.13438782	1.0436361	0.77615	0.20936572	1.1660294	0.8438203	-0.07802839	1.1505751	0.8273749	0.16927164	0.97667745	0.90766283	0.042663947	1.066076	1.3132838	-0.13838454	1.1078325	1.3138299	0.22266092	1.0051479	1.3460873	0.051007267	0.94624067	1.0330175	-0.17191498	1.1682861	0.99458384	0.3039172	0.96451642	0.80556818	-0.26002388	1.3951288	1.0207495	0.19721918
401	1.6	1.5291811	0.11769847	-0.10018274	0.89828648	0.03507709	0.096204212	1.4014105	0.095083222	-0.10587252	0.76835597	0.077889698	0.11395024	1.4085164	0.11306459	-0.022560198	0.79611602	0.095249289	0.028046248	1.3545165	0.038187593	-0.053849374	0.71264504	0.066329741	0.052300179	1.2904846	0.44682212	-0.1034427	0.95158849	0.42459883	0.14892797	1.2855485	0.43311008	0.022015875	0.92774081	0.42682995	0.017897088	1.1117265	0.79801144	-0.13459364	1.0487713	0.7748483	0.20862178	1.1726498	0.84202467	-0.078211561	1.1564039	0.82569327	0.1692661	0.98394435	0.90613467	0.042938176	1.0719503	1.3118383	-0.13888495	1.1137835	1.3123259	0.22223954	1.0110977	1.3446305	0.050529494	0.95141314	1.0318809	-0.17179634	1.1750122	0.99313734	0.30354737	0.9686874	0.80446642	-0.26024911	1.4013842	1.0194075	0.19599694
402	1.604	1.5405423	0.12039976	-0.099925121	0.89831583	0.035053193	0.096299425	1.4131099	0.095876394	-0.10537783	0.76893889	0.078914206	0.11420519	1.4200272	0.1139414	-0.022058527	0.7968423	0.09609123	0.028308793	1.3670564	0.038295006	-0.053534898	0.71313475	0.067971959	0.052616529	1.2969121	0.44546354	-0.10270706	0.95550854	0.42405766	0.14892894	1.291553	0.43171989	0.023070946	0.93191409	0.42633386	0.017846478	1.118347	0.79614264	-0.13482506	1.0537088	0.77351143	0.20786702	1.1792718	0.84025571	-0.078436351	1.162321	0.82406995	0.16919225	0.99121249	0.90467923	0.043333851	1.0778642	1.3104262	-0.13939711	1.1197567	1.310856	0.22179704	1.0170969	1.3431964	0.050016979	0.95666441	1.030744	-0.17169365	1.1816618	0.9917008	0.30316489	0.97302322	0.80337405	-0.26047722	1.4075812	1.0179641	0.19483731
403	1.608	1.5513073	0.12279856	-0.099627751	0.8983834	0.035039876	0.096382155	1.4242567	0.096604703	-0.10486789	0.76957569	0.079996523	0.11449006	1.4309569	0.11467557	-0.021530323	0.79766934	0.096987607	0.028573161	1.3789627	0.038306706	-0.05307822	0.71371057	0.069687748	0.052929525	1.3034957	0.44431325	-0.10187632	0.9595596	0.42350712	0.1489421	1.297647	0.43061291	0.024067951	0.9362196	0.42581431	0.017822619	1.1249835	0.79430326	-0.13508446	1.0587205	0.77220519	0.20726269	1.1859128	0.8385074	-0.078669599	1.1683469	0.82252209	0.16903052	0.99727599	0.90357177	0.04287525	1.0838214	1.3090523	-0.13991818	1.1257665	1.3094027	0.22133295	1.0231471	1.3417792	0.04947666	0.96199764	1.0296175	-0.17161754	1.1882276	0.99027379	0.30277388	0.97751613	0.80228977	-0.26071117	1.4137231	1.0164209	0.19374321
404	1.612	1.5615577	0.12481216	-0.099223764	0.89848975	0.03502895	0.096457054	1.4348504	0.09723376	-0.10431873	0.77029207	0.081130166	0.11481251	1.4412222	0.11521394	-0.020940663	0.79853784	0.097944015	0.028872273	1.3902336	0.038161994	-0.052391865	0.71429758	0.071505115	0.053301986	1.3102005	0.44332429	-0.1009937	0.96374321	0.42294519	0.1489661	1.3038288	0.42975105	0.024970936	0.94065306	0.42527124	0.01782006	1.1316403	0.79250651	-0.13536261	1.0640653	0.77095565	0.20681142	1.1925931	0.83678165	-0.078879567	1.1744691	0.82103709	0.16880588	1.0012597	0.90300136	0.041009633	1.0898293	1.3077128	-0.14045145	1.1318228	1.3079561	0.22084798	1.0292462	1.3403801	0.048913908	0.96741253	1.028502	-0.17157228	1.1947024	0.98885662	0.30237217	0.9821619	0.80121216	-0.26095241	1.4198107	1.014781	0.19271308
405	1.616	1.5713755	0.12642301	-0.098659896	0.89862413	0.035008718	0.096532681	1.4448976	0.097727902	-0.1036887	0.77109128	0.082315053	0.11518294	1.4508051	0.11552211	-0.020255795	0.79942877	0.098963012	0.029219505	1.4008735	0.037800543	-0.051372531	0.71489137	0.073436873	0.053773438	1.3169856	0.44244219	-0.10010556	0.96806064	0.42236981	0.1489989	1.3100964	0.42908621	0.025773535	0.94521504	0.42470462	0.017837539	1.1383264	0.79076027	-0.13564491	1.0697813	0.76974513	0.2064079	1.1993122	0.83509714	-0.079072848	1.1806651	0.81959656	0.16856099	1.0037851	0.9028114	0.038374837	1.0958941	1.3063998	-0.14100577	1.1379219	1.3065234	0.22034244	1.0353866	1.3390083	0.048329236	0.97290687	1.0273884	-0.17155435	1.2010944	0.98746111	0.30195815	0.98696405	0.80014137	-0.26120163	1.4258382	1.0130539	0.19174516
406	1.62	1.5807904	0.12766978	-0.097919816	0.89876493	0.034976936	0.096620787	1.4544077	0.098046244	-0.10293866	0.77197492	0.083549065	0.11561262	1.4597076	0.11556697	-0.019467088	0.80034678	0.10004701	0.029617597	1.4108715	0.037244614	-0.050106764	0.71554036	0.075470135	0.054328961	1.323822	0.4416173	-0.099254029	0.9725134	0.4217769	0.14903748	1.3164507	0.42857078	0.026489075	0.94991156	0.42411214	0.017875755	1.1450484	0.7890779	-0.13593409	1.0757674	0.76855227	0.20599146	1.2060566	0.83346938	-0.079275859	1.1869211	0.81818955	0.1683394	1.0064988	0.90258442	0.036176174	1.102014	1.3051122	-0.14158918	1.1440556	1.3051195	0.21980913	1.0415635	1.3376679	0.047716095	0.97848049	1.026271	-0.17155789	1.2074215	0.98609918	0.30153251	0.99192752	0.79907951	-0.26146134	1.4318169	1.0112468	0.190825
407	1.624	1.5897562	0.12855894	-0.097002203	0.89888635	0.034945934	0.09673489	1.4633938	0.098141793	-0.10205371	0.77296893	0.084816729	0.11611634	1.4679266	0.11531676	-0.018578758	0.80131482	0.10119636	0.030065906	1.4202025	0.036592449	-0.048860786	0.71630191	0.077583015	0.054928158	1.3307013	0.4408152	-0.098467179	0.97709715	0.42116331	0.14907859	1.3229011	0.42815677	0.027137674	0.95474655	0.42348939	0.017932101	1.1518022	0.78748155	-0.13624986	1.081902	0.76737107	0.20556246	1.2128193	0.83189677	-0.079503428	1.1932316	0.81681691	0.16816526	1.010562	0.90199932	0.034963165	1.1081827	1.3038554	-0.14220535	1.1502213	1.3037545	0.2192397	1.0477826	1.3363584	0.047066652	0.98413656	1.025151	-0.17157967	1.2136972	0.98476845	0.30109068	0.99705386	0.7980289	-0.26173662	1.4377788	1.0093571	0.18992768
408	1.628	1.5981835	0.12903004	-0.095898917	0.89898672	0.034933906	0.096874191	1.4718801	0.097967003	-0.10104493	0.7740968	0.086113605	0.11670794	1.4755517	0.11478672	-0.017578195	0.80237808	0.1024083	0.030556947	1.4288465	0.035901353	-0.04780256	0.71718971	0.079780181	0.055554335	1.3376238	0.44002213	-0.097756752	0.98179608	0.42053345	0.14912129	1.3294678	0.42779551	0.027731459	0.9597165	0.4228355	0.018005051	1.1585774	0.78599487	-0.13661314	1.0880117	0.76621411	0.20514187	1.2195979	0.83037431	-0.079756944	1.199591	0.81548588	0.16801509	1.0160264	0.90103966	0.034420276	1.1144003	1.3026332	-0.14285407	1.1564238	1.3024331	0.21863333	1.0540533	1.3350769	0.046381896	0.98988109	1.0240309	-0.1716208	1.219922	0.98346076	0.30062574	1.0023406	0.79699026	-0.26203184	1.4437479	1.0073784	0.18903977
